<mxfile host="app.diagrams.net" modified="2023-11-22T08:05:00.142Z" agent="Mozilla/5.0 (X11; Linux x86_64) AppleWebKit/537.36 (KHTML, like Gecko) Chrome/119.0.0.0 Safari/537.36" version="22.1.3" etag="xMg1eMBoDSzZ1F3j6hPN" type="github">
  <diagram name="Page-1" id="-aNn5x7Dk5rcrJrbIzxd">
    <mxGraphModel>
      <root>
        <mxCell id="0" />
        <mxCell id="1" parent="0" />
      </root>
    </mxGraphModel>
  </diagram>
</mxfile>
